<?xml version="1.0" encoding="UTF-8" standalone="no"?>
<svg
   width="308.7612359841165"
   height="304.915625"
   viewBox="0 0 106.00782394174519 104.68749999999999"
   class="css-1j8o68f"
   version="1.1"
   id="svg23"
   sodipodi:docname="logo_D_bold.svg"
   xmlns:inkscape="http://www.inkscape.org/namespaces/inkscape"
   xmlns:sodipodi="http://sodipodi.sourceforge.net/DTD/sodipodi-0.dtd"
   xmlns="http://www.w3.org/2000/svg"
   xmlns:svg="http://www.w3.org/2000/svg">
  <sodipodi:namedview
     id="namedview25"
     pagecolor="#ffffff"
     bordercolor="#000000"
     borderopacity="0.25"
     inkscape:showpageshadow="2"
     inkscape:pageopacity="0.0"
     inkscape:pagecheckerboard="0"
     inkscape:deskcolor="#d1d1d1" />
  <defs
     id="SvgjsDefs2684" />
  <g
     id="SvgjsG2685"
     featurekey="rootContainer"
     transform="matrix(0.9820592540669653,0,0,0.9820592540669653,-0.054560523427421584,0)"
     fill="#ff4a3f">
    <g
       id="g17">
      <path
         d="M45.5 10.3c-.6 0-1.1.2-1.5.6-.4.4-.6.9-.6 1.5v10.3h4.2v-10.3c0-.6-.2-1.1-.6-1.5-.4-.4-.9-.6-1.5-.6z"
         id="path1" />
      <path
         d="M59.1 26.5h-9.4v4.2h5.5v15.1h-5.5v4.2h9.4v-4.2h-5.5v-15.1h5.5v-4.2z"
         id="path2" />
      <path
         d="M72.2 26.5h-9.4v4.2h5.5v15.1h-5.5v4.2h9.4v-4.2h-5.5v-15.1h5.5v-4.2z"
         id="path3" />
      <path
         d="M21.8 17.8c-.7 0-1.3.3-1.7.8-.4.4-.7.9-.7 1.4v10.3h4.2v-10.3c0-.5-.2-.9-.7-1.4-.4-.5-1-.8-1.7-.8z"
         id="path4" />
      <path
         d="M17.5 31.5h9.4v4.2h-5.5v15.1h5.5v4.2h-9.4v-4.2h5.5v-15.1h-5.5v-4.2z"
         id="path5" />
      <path
         d="M14 41.6c-.7 0-1.4.3-1.9.8-.5.5-.8 1.2-.8 1.9v10.3h4.2v-10.3c0-.7-.3-1.4-.8-1.9-.5-.5-1.2-.8-1.9-.8z"
         id="path6" />
      <path
         d="M25.9 44.5h5.5v-4.2h-5.5v-15.1h5.5v-4.2h-9.4v4.2h5.5v15.1h-5.5v4.2h9.4v-4.2h-5.5v-15.1h5.5v-4.2z"
         id="path7" />
    </g>
  </g>
</svg>
